<?xml version="1.0" ?><!DOCTYPE svg  PUBLIC '-//W3C//DTD SVG 1.1//EN'  'http://www.w3.org/Graphics/SVG/1.1/DTD/svg11.dtd'><svg height="512px" id="Layer_1" style="enable-background:new 0 0 512 512;" version="1.1" viewBox="0 0 512 512" width="512px" xml:space="preserve" xmlns="http://www.w3.org/2000/svg" xmlns:xlink="http://www.w3.org/1999/xlink"><g id="Layer_1_1_"><circle cx="250.189" cy="262.285" r="243" style="fill:#8DC63F;"/></g><g id="Layer_2"><g id="Favorite"/><g><g><g><defs><circle cx="250.189" cy="262.285" id="SVGID_1_" r="243"/></defs><clipPath id="SVGID_2_"><use style="overflow:visible;" xlink:href="#SVGID_1_"/></clipPath><rect height="401.872" style="clip-path:url(#SVGID_2_);fill:#FFFFFF;" width="388.694" y="242.555"/></g><g><defs><circle cx="250.189" cy="262.285" id="SVGID_3_" r="243"/></defs><clipPath id="SVGID_4_"><use style="overflow:visible;" xlink:href="#SVGID_3_"/></clipPath><g style="opacity:0.7;clip-path:url(#SVGID_4_);adobe-blending-mode:multiply;"><rect height="26.614" style="fill:#8299CE;adobe-blending-mode:normal;" width="166.69" x="193.556" y="270.802"/></g></g><g><defs><circle cx="250.189" cy="262.285" id="SVGID_5_" r="243"/></defs><clipPath id="SVGID_6_"><use style="overflow:visible;" xlink:href="#SVGID_5_"/></clipPath><g style="opacity:0.7;clip-path:url(#SVGID_6_);adobe-blending-mode:multiply;"><rect height="8.405" style="fill:#8299CE;adobe-blending-mode:normal;" width="350.889" x="9.356" y="316.326"/></g></g><g><defs><circle cx="250.189" cy="262.285" id="SVGID_7_" r="243"/></defs><clipPath id="SVGID_8_"><use style="overflow:visible;" xlink:href="#SVGID_7_"/></clipPath><g style="opacity:0.7;clip-path:url(#SVGID_8_);adobe-blending-mode:multiply;"><rect height="8.405" style="fill:#8299CE;adobe-blending-mode:normal;" width="350.889" x="9.356" y="336.171"/></g></g><g><defs><circle cx="250.189" cy="262.285" id="SVGID_9_" r="243"/></defs><clipPath id="SVGID_10_"><use style="overflow:visible;" xlink:href="#SVGID_9_"/></clipPath><g style="opacity:0.7;clip-path:url(#SVGID_10_);adobe-blending-mode:multiply;"><rect height="8.405" style="fill:#8299CE;adobe-blending-mode:normal;" width="350.889" x="9.356" y="358.851"/></g></g><g><defs><circle cx="250.189" cy="262.285" id="SVGID_11_" r="243"/></defs><clipPath id="SVGID_12_"><use style="overflow:visible;" xlink:href="#SVGID_11_"/></clipPath><g style="opacity:0.7;clip-path:url(#SVGID_12_);adobe-blending-mode:multiply;"><rect height="8.405" style="fill:#8299CE;adobe-blending-mode:normal;" width="350.889" x="9.356" y="381.531"/></g></g><g><defs><circle cx="250.189" cy="262.285" id="SVGID_13_" r="243"/></defs><clipPath id="SVGID_14_"><use style="overflow:visible;" xlink:href="#SVGID_13_"/></clipPath><g style="opacity:0.7;clip-path:url(#SVGID_14_);adobe-blending-mode:multiply;"><rect height="8.405" style="fill:#8299CE;adobe-blending-mode:normal;" width="261.941" x="9.356" y="404.211"/></g></g><g><defs><circle cx="250.189" cy="262.285" id="SVGID_15_" r="243"/></defs><clipPath id="SVGID_16_"><use style="overflow:visible;" xlink:href="#SVGID_15_"/></clipPath><g style="opacity:0.7;clip-path:url(#SVGID_16_);adobe-blending-mode:multiply;"><rect height="8.405" style="fill:#8299CE;adobe-blending-mode:normal;" width="350.889" x="9.356" y="452.406"/></g></g><g><defs><circle cx="250.189" cy="262.285" id="SVGID_17_" r="243"/></defs><clipPath id="SVGID_18_"><use style="overflow:visible;" xlink:href="#SVGID_17_"/></clipPath><g style="opacity:0.7;clip-path:url(#SVGID_18_);adobe-blending-mode:multiply;"><rect height="8.405" style="fill:#8299CE;adobe-blending-mode:normal;" width="350.889" x="9.356" y="472.251"/></g></g><g><defs><circle cx="250.189" cy="262.285" id="SVGID_19_" r="243"/></defs><clipPath id="SVGID_20_"><use style="overflow:visible;" xlink:href="#SVGID_19_"/></clipPath><g style="opacity:0.7;clip-path:url(#SVGID_20_);adobe-blending-mode:multiply;"><rect height="8.405" style="fill:#8299CE;adobe-blending-mode:normal;" width="350.889" x="9.356" y="494.931"/></g></g></g><path d="M234.553,86.175l-13.184,21.496c-1.368,2.23-4.464,2.815-6.923,1.307l-32.089-19.681    c-2.459-1.508-3.341-4.533-1.973-6.763l13.184-21.496c1.368-2.23,4.464-2.815,6.923-1.307l32.089,19.681    C235.039,80.921,235.921,83.945,234.553,86.175z" style="fill:#F1AAAF;"/><g><polygon points="90.821,241.802 64.749,242.63      33.222,300.772 39.666,357.873    " style="opacity:0.2;adobe-blending-mode:multiply;enable-background:new    ;"/></g><path d="M205.784,62.978    L187.65,92.544l-5.293-3.246c-2.459-1.508-3.341-4.533-1.973-6.763l13.184-21.496c1.368-2.23,4.464-2.815,6.923-1.307    L205.784,62.978z" style="opacity:0.5;fill:#F1AAAF;adobe-blending-mode:multiply;enable-background:new    ;"/><rect height="48.078" style="fill:#E44F50;" transform="matrix(-0.5228 0.8524 -0.8524 -0.5228 377.5892 208.3866)" width="246.924" x="7.008" y="185.837"/><polygon points="86.237,327.581 43.262,352.011 45.557,302.631   " style="fill:#FFDD00;"/><rect height="13.961" style="fill:#E44F50;adobe-blending-mode:multiply;enable-background:new    ;" transform="matrix(-0.5228 0.8524 -0.8524 -0.5228 347.8426 207.1982)" width="246.924" x="-7.533" y="193.975"/><rect height="14.229" style="opacity:0.5;fill:#E44F50;adobe-blending-mode:multiply;enable-background:new    ;" transform="matrix(-0.5228 0.8524 -0.8524 -0.5228 407.1001 209.5631)" width="246.924" x="21.434" y="211.609"/><polygon points="43.262,352.011     45.557,302.631 57.338,309.856   " style="opacity:0.5;fill:#FFDD00;adobe-blending-mode:multiply;enable-background:new    ;"/><polygon points="86.237,327.581     43.262,352.011 74.291,320.254   " style="opacity:0.5;fill:#FFDD00;adobe-blending-mode:multiply;enable-background:new    ;"/><path d="M223.488,109.462l-4.283,6.983c-1.508,2.459-4.723,3.224-7.176,1.72l-36.556-22.421    c-2.453-1.504-3.228-4.717-1.72-7.176l4.283-6.983c1.504-2.453,4.723-3.224,7.176-1.72l36.556,22.421    C224.221,103.79,224.993,107.009,223.488,109.462z" style="fill:#AFB6DC;"/><path d="M189.787,82.671l-9.739,15.879    l-4.575-2.806c-2.453-1.504-3.228-4.717-1.72-7.176l4.283-6.983c1.504-2.453,4.723-3.224,7.176-1.72L189.787,82.671z" style="fill:#AFB6DC;adobe-blending-mode:multiply;enable-background:new    ;"/><g><polygon points="52.429,346.83 39.666,357.873 43.724,341.491    " style="fill:#8299CE;"/><polygon points="52.429,346.83 39.666,357.873      43.724,341.491    " style="fill:#8299CE;adobe-blending-mode:multiply;enable-background:new    ;"/></g><g><path d="M332.279,242.635l-250.09,195.22     c-7.71-7.38-14.93-15.26-21.61-23.59c-4.13-5.14-8.05-10.45-11.76-15.92c0,0,0-0.01-0.01-0.01c-0.01-0.01-0.01-0.02-0.02-0.03     s-0.01-0.02-0.02-0.03c-1.15-1.73-2.32-3.47-3.44-5.24c-0.96-1.51-1.91-3.02-2.84-4.55c-1.87-3.07-3.68-6.19-5.4-9.35     l174.87-136.5L332.279,242.635L332.279,242.635z" style="opacity:0.2;adobe-blending-mode:multiply;enable-background:new    ;"/></g><g><path d="M499.109,125.955l-32.63,25.47l-376.3,293.74c-2.72-2.38-5.38-4.82-7.99-7.31     c-7.71-7.38-14.93-15.26-21.61-23.59c-4.13-5.14-8.05-10.45-11.76-15.92c0,0,0-0.01-0.01-0.01c-0.01-0.01-0.01-0.02-0.02-0.03     c-1.16-1.74-2.33-3.49-3.46-5.27c-0.96-1.51-1.91-3.02-2.84-4.55l186.83-145.85l193.68-151.18l30.56-23.86l3.29,4.21l15.95,20.44     L499.109,125.955z" style="fill:#F5BA3D;"/><path d="M499.109,125.955     l-32.63,25.47l-376.3,293.74c-2.72-2.38-5.38-4.82-7.99-7.31c-7.71-7.38-14.93-15.26-21.61-23.59     c-4.13-5.14-8.05-10.45-11.76-15.92c0,0,0-0.01-0.01-0.01c-0.01-0.01-0.01-0.02-0.02-0.03c-1.16-1.74-2.33-3.49-3.46-5.27     c-0.96-1.51-1.91-3.02-2.84-4.55l186.83-145.85l193.68-151.18l30.56-23.86l3.29,4.21l15.95,20.44L499.109,125.955z" style="opacity:0.5;fill:#BF912F;adobe-blending-mode:multiply;enable-background:new    ;"/></g><path d="M502.399,130.165l-33.48,26.14l-374.59,292.41c-1.4-1.17-2.78-2.35-4.15-3.55    c-2.72-2.38-5.38-4.82-7.99-7.31c-7.71-7.38-14.93-15.26-21.61-23.59c-4.13-5.14-8.05-10.45-11.76-15.92c0,0,0-0.01-0.01-0.01    c-0.01-0.01-0.01-0.02-0.02-0.03c-1.16-1.74-2.33-3.49-3.46-5.27l192.68-150.4l188.72-147.32l30.12-23.51l15.95,20.44l26.31,33.71    L502.399,130.165z" style="fill:#F5BA3D;"/><path d="M472.799,92.245l-22.5,17.58    l-6.75,5.27l-13.74,10.73l-20.48,16.01l-20.5,16l-20.49,16.01l-20.48,16.01l-20.5,16l-20.49,16.01l-20.48,16.01l-6.1,4.76    l-14.4,11.24l-20.48,16.01l-20.49,16l-20.49,16.01l-20.49,16l-40.98,32.02l-20.49,16l-20.49,16.01l-20.48,16.01l-20.5,16    l-0.42,0.33c-4.13-5.14-8.05-10.45-11.76-15.92c-1.18-1.75-2.35-3.52-3.49-5.31l192.68-150.4l188.72-147.32l30.12-23.51    L472.799,92.245z" style="opacity:0.2;fill:#F5BA3D;adobe-blending-mode:multiply;enable-background:new    ;"/><g style="opacity:0.6;adobe-blending-mode:multiply;"><g style="adobe-blending-mode:normal;"><line style="fill:none;stroke:#F5BA3D;stroke-width:4;stroke-linecap:round;stroke-miterlimit:10;" x1="436.654" x2="456.623" y1="92.355" y2="117.917"/></g><g style="adobe-blending-mode:normal;"><line style="fill:none;stroke:#F5BA3D;stroke-width:4;stroke-linecap:round;stroke-miterlimit:10;" x1="416.165" x2="436.134" y1="108.361" y2="133.923"/></g><g style="adobe-blending-mode:normal;"><line style="fill:none;stroke:#F5BA3D;stroke-width:4;stroke-linecap:round;stroke-miterlimit:10;" x1="395.676" x2="415.645" y1="124.367" y2="149.929"/></g><g style="adobe-blending-mode:normal;"><line style="fill:none;stroke:#F5BA3D;stroke-width:4;stroke-linecap:round;stroke-miterlimit:10;" x1="375.187" x2="395.156" y1="140.373" y2="165.936"/></g><g style="adobe-blending-mode:normal;"><line style="fill:none;stroke:#F5BA3D;stroke-width:4;stroke-linecap:round;stroke-miterlimit:10;" x1="354.697" x2="374.667" y1="156.379" y2="181.942"/></g><g style="adobe-blending-mode:normal;"><line style="fill:none;stroke:#F5BA3D;stroke-width:4;stroke-linecap:round;stroke-miterlimit:10;" x1="334.208" x2="354.178" y1="172.386" y2="197.948"/></g><g style="adobe-blending-mode:normal;"><line style="fill:none;stroke:#F5BA3D;stroke-width:4;stroke-linecap:round;stroke-miterlimit:10;" x1="313.719" x2="333.689" y1="188.392" y2="213.954"/></g><g style="adobe-blending-mode:normal;"><line style="fill:none;stroke:#F5BA3D;stroke-width:4;stroke-linecap:round;stroke-miterlimit:10;" x1="293.23" x2="313.2" y1="204.398" y2="229.96"/></g><g style="adobe-blending-mode:normal;"><line style="fill:none;stroke:#F5BA3D;stroke-width:4;stroke-linecap:round;stroke-miterlimit:10;" x1="272.741" x2="292.711" y1="220.404" y2="245.967"/></g><g style="adobe-blending-mode:normal;"><line style="fill:none;stroke:#F5BA3D;stroke-width:4;stroke-linecap:round;stroke-miterlimit:10;" x1="252.252" x2="272.222" y1="236.41" y2="261.973"/></g><g style="adobe-blending-mode:normal;"><line style="fill:none;stroke:#F5BA3D;stroke-width:4;stroke-linecap:round;stroke-miterlimit:10;" x1="231.763" x2="251.733" y1="252.417" y2="277.979"/></g><g style="adobe-blending-mode:normal;"><line style="fill:none;stroke:#F5BA3D;stroke-width:4;stroke-linecap:round;stroke-miterlimit:10;" x1="211.274" x2="231.244" y1="268.423" y2="293.985"/></g><g style="adobe-blending-mode:normal;"><line style="fill:none;stroke:#F5BA3D;stroke-width:4;stroke-linecap:round;stroke-miterlimit:10;" x1="190.785" x2="210.755" y1="284.429" y2="309.991"/></g><g style="adobe-blending-mode:normal;"><line style="fill:none;stroke:#F5BA3D;stroke-width:4;stroke-linecap:round;stroke-miterlimit:10;" x1="170.296" x2="190.266" y1="300.435" y2="325.998"/></g><g style="adobe-blending-mode:normal;"><line style="fill:none;stroke:#F5BA3D;stroke-width:4;stroke-linecap:round;stroke-miterlimit:10;" x1="149.807" x2="169.776" y1="316.441" y2="342.004"/></g><g style="adobe-blending-mode:normal;"><line style="fill:none;stroke:#F5BA3D;stroke-width:4;stroke-linecap:round;stroke-miterlimit:10;" x1="129.318" x2="149.287" y1="332.448" y2="358.01"/></g><g style="adobe-blending-mode:normal;"><line style="fill:none;stroke:#F5BA3D;stroke-width:4;stroke-linecap:round;stroke-miterlimit:10;" x1="108.829" x2="128.798" y1="348.454" y2="374.016"/></g><g style="adobe-blending-mode:normal;"><line style="fill:none;stroke:#F5BA3D;stroke-width:4;stroke-linecap:round;stroke-miterlimit:10;" x1="88.34" x2="108.309" y1="364.46" y2="390.022"/></g><g style="adobe-blending-mode:normal;"><line style="fill:none;stroke:#F5BA3D;stroke-width:4;stroke-linecap:round;stroke-miterlimit:10;" x1="67.851" x2="87.82" y1="380.466" y2="406.029"/></g></g></g></g></svg>